<svg xmlns="http://www.w3.org/2000/svg" xmlns:xlink="http://www.w3.org/1999/xlink" width="300" zoomAndPan="magnify" viewBox="0 0 224.87999 225" height="300" preserveAspectRatio="xMidYMid meet" version="1.0"><defs><g/><clipPath id="aaed0add58"><path d="M 25 88.042969 L 63 88.042969 L 63 116 L 25 116 Z M 25 88.042969 " clip-rule="nonzero"/></clipPath><clipPath id="331662d080"><path d="M 74 88.042969 L 102 88.042969 L 102 116 L 74 116 Z M 74 88.042969 " clip-rule="nonzero"/></clipPath><clipPath id="e2ba75125a"><path d="M 120 88.042969 L 150 88.042969 L 150 116 L 120 116 Z M 120 88.042969 " clip-rule="nonzero"/></clipPath><clipPath id="0468df5150"><path d="M 159 88.042969 L 200 88.042969 L 200 116 L 159 116 Z M 159 88.042969 " clip-rule="nonzero"/></clipPath><clipPath id="0c8463dc43"><path d="M 0 88.042969 L 44 88.042969 L 44 116 L 0 116 Z M 0 88.042969 " clip-rule="nonzero"/></clipPath><clipPath id="2496c1f203"><path d="M 49 88.042969 L 82 88.042969 L 82 116 L 49 116 Z M 49 88.042969 " clip-rule="nonzero"/></clipPath><clipPath id="1386e42129"><path d="M 99 88.042969 L 125 88.042969 L 125 116 L 99 116 Z M 99 88.042969 " clip-rule="nonzero"/></clipPath><clipPath id="4afc765167"><path d="M 139 88.042969 L 175 88.042969 L 175 116 L 139 116 Z M 139 88.042969 " clip-rule="nonzero"/></clipPath><clipPath id="5c6d6b4c6b"><path d="M 178 88.042969 L 224.761719 88.042969 L 224.761719 116 L 178 116 Z M 178 88.042969 " clip-rule="nonzero"/></clipPath><clipPath id="da59134577"><path d="M 25 115 L 50 115 L 50 136.769531 L 25 136.769531 Z M 25 115 " clip-rule="nonzero"/></clipPath><clipPath id="7d43f49ab7"><path d="M 74 115 L 100 115 L 100 136.769531 L 74 136.769531 Z M 74 115 " clip-rule="nonzero"/></clipPath><clipPath id="39d63eb730"><path d="M 124 115 L 150 115 L 150 136.769531 L 124 136.769531 Z M 124 115 " clip-rule="nonzero"/></clipPath><clipPath id="f6dfa14c8b"><path d="M 174 115 L 200 115 L 200 136.769531 L 174 136.769531 Z M 174 115 " clip-rule="nonzero"/></clipPath><clipPath id="d27c6d9bc4"><path d="M 0 115 L 25 115 L 25 136.769531 L 0 136.769531 Z M 0 115 " clip-rule="nonzero"/></clipPath><clipPath id="532e3081ca"><path d="M 49 115 L 75 115 L 75 136.769531 L 49 136.769531 Z M 49 115 " clip-rule="nonzero"/></clipPath><clipPath id="72f707ebbe"><path d="M 99 115 L 125 115 L 125 136.769531 L 99 136.769531 Z M 99 115 " clip-rule="nonzero"/></clipPath><clipPath id="8bb81b784e"><path d="M 149 115 L 175 115 L 175 136.769531 L 149 136.769531 Z M 149 115 " clip-rule="nonzero"/></clipPath><clipPath id="1a6b19c065"><path d="M 199 115 L 224.761719 115 L 224.761719 136.769531 L 199 136.769531 Z M 199 115 " clip-rule="nonzero"/></clipPath></defs><g clip-path="url(#aaed0add58)"><path fill="#f4f4f4" d="M 49.980469 115.566406 L 25 115.566406 L 43.375 88.101562 L 62.660156 88.101562 L 49.980469 115.566406 " fill-opacity="1" fill-rule="nonzero"/></g><g clip-path="url(#331662d080)"><path fill="#f4f4f4" d="M 99.949219 115.566406 L 74.96875 115.566406 L 81.933594 88.101562 L 101.203125 88.101562 L 99.949219 115.566406 " fill-opacity="1" fill-rule="nonzero"/></g><g clip-path="url(#e2ba75125a)"><path fill="#f4f4f4" d="M 149.914062 115.566406 L 124.941406 115.566406 L 120.488281 88.101562 L 139.75 88.101562 L 149.914062 115.566406 " fill-opacity="1" fill-rule="nonzero"/></g><g clip-path="url(#0468df5150)"><path fill="#f4f4f4" d="M 199.875 115.566406 L 174.898438 115.566406 L 159.023438 88.101562 L 178.289062 88.101562 L 199.875 115.566406 " fill-opacity="1" fill-rule="nonzero"/></g><g clip-path="url(#0c8463dc43)"><path fill="#e74c3c" d="M 25 115.566406 L 0.015625 115.566406 L 24.113281 88.101562 L 43.371094 88.101562 L 25 115.566406 " fill-opacity="1" fill-rule="nonzero"/></g><g clip-path="url(#2496c1f203)"><path fill="#e74c3c" d="M 74.964844 115.566406 L 49.972656 115.566406 L 62.652344 88.101562 L 81.925781 88.101562 L 74.964844 115.566406 " fill-opacity="1" fill-rule="nonzero"/></g><g clip-path="url(#1386e42129)"><path fill="#e74c3c" d="M 124.929688 115.566406 L 99.945312 115.566406 L 101.199219 88.101562 L 120.476562 88.101562 L 124.929688 115.566406 " fill-opacity="1" fill-rule="nonzero"/></g><g clip-path="url(#4afc765167)"><path fill="#e74c3c" d="M 174.894531 115.566406 L 149.902344 115.566406 L 139.734375 88.101562 L 159.015625 88.101562 L 174.894531 115.566406 " fill-opacity="1" fill-rule="nonzero"/></g><g clip-path="url(#5c6d6b4c6b)"><path fill="#e74c3c" d="M 224.863281 115.566406 L 199.867188 115.566406 L 178.285156 88.101562 L 197.550781 88.101562 L 224.863281 115.566406 " fill-opacity="1" fill-rule="nonzero"/></g><g clip-path="url(#da59134577)"><path fill="#bdbcbc" d="M 25 115.566406 L 25 125.117188 C 25 128.476562 30.59375 136.960938 37.496094 136.960938 C 44.382812 136.960938 49.972656 128.476562 49.972656 125.117188 L 49.972656 115.566406 L 25 115.566406 " fill-opacity="1" fill-rule="nonzero"/></g><g clip-path="url(#7d43f49ab7)"><path fill="#bdbcbc" d="M 99.941406 125.113281 L 99.941406 115.566406 L 74.960938 115.566406 L 74.960938 125.117188 C 74.960938 128.476562 80.554688 136.960938 87.453125 136.960938 C 94.355469 136.960938 99.941406 128.476562 99.941406 125.117188 L 99.941406 125.113281 " fill-opacity="1" fill-rule="nonzero"/></g><g clip-path="url(#39d63eb730)"><path fill="#bdbcbc" d="M 149.898438 125.097656 L 149.898438 115.566406 L 124.925781 115.566406 L 124.925781 125.117188 L 124.945312 125.117188 C 124.945312 128.476562 130.527344 136.960938 137.414062 136.960938 C 144.316406 136.960938 149.914062 128.476562 149.914062 125.117188 L 149.898438 125.097656 " fill-opacity="1" fill-rule="nonzero"/></g><g clip-path="url(#f6dfa14c8b)"><path fill="#bdbcbc" d="M 199.867188 125.085938 L 199.867188 115.566406 L 174.894531 115.566406 L 174.894531 125.117188 C 174.894531 128.476562 180.480469 136.960938 187.382812 136.960938 C 194.289062 136.960938 199.882812 128.476562 199.882812 125.117188 L 199.867188 125.085938 " fill-opacity="1" fill-rule="nonzero"/></g><g clip-path="url(#d27c6d9bc4)"><path fill="#ab3c31" d="M 0.015625 115.566406 L 0.015625 125.117188 C 0.015625 128.476562 5.609375 136.960938 12.507812 136.960938 C 19.402344 136.960938 25 128.476562 25 125.117188 L 25 115.566406 L 0.015625 115.566406 " fill-opacity="1" fill-rule="nonzero"/></g><g clip-path="url(#532e3081ca)"><path fill="#ab3c31" d="M 49.972656 125.117188 C 49.972656 128.476562 55.574219 136.960938 62.476562 136.960938 C 69.382812 136.960938 74.964844 128.476562 74.964844 125.117188 L 74.964844 115.566406 L 49.972656 115.566406 L 49.972656 125.117188 " fill-opacity="1" fill-rule="nonzero"/></g><g clip-path="url(#72f707ebbe)"><path fill="#ab3c31" d="M 124.929688 115.566406 L 99.945312 115.566406 L 99.945312 125.117188 L 99.960938 125.117188 C 99.960938 128.476562 105.539062 136.960938 112.4375 136.960938 C 119.328125 136.960938 124.945312 128.476562 124.945312 125.117188 L 124.929688 125.097656 L 124.929688 115.566406 " fill-opacity="1" fill-rule="nonzero"/></g><g clip-path="url(#8bb81b784e)"><path fill="#ab3c31" d="M 174.894531 115.566406 L 149.902344 115.566406 L 149.902344 125.117188 L 149.917969 125.117188 C 149.917969 128.476562 155.507812 136.960938 162.398438 136.960938 C 169.304688 136.960938 174.894531 128.476562 174.894531 125.117188 L 174.894531 115.566406 " fill-opacity="1" fill-rule="nonzero"/></g><g clip-path="url(#1a6b19c065)"><path fill="#ab3c31" d="M 224.863281 125.085938 L 224.863281 115.566406 L 199.867188 115.566406 L 199.867188 125.117188 L 199.886719 125.117188 C 199.886719 128.476562 205.464844 136.960938 212.382812 136.960938 C 219.273438 136.960938 224.863281 128.476562 224.863281 125.117188 L 224.863281 125.085938 " fill-opacity="1" fill-rule="nonzero"/></g><g fill="#ab3c31" fill-opacity="1"><g transform="translate(110.322736, 124.271734)"><g><path d="M 2.109375 0.09375 C 1.816406 0.09375 1.566406 -0.0078125 1.359375 -0.21875 C 1.148438 -0.425781 1.046875 -0.6875 1.046875 -1 C 1.046875 -1.300781 1.148438 -1.550781 1.359375 -1.75 C 1.566406 -1.957031 1.816406 -2.0625 2.109375 -2.0625 C 2.398438 -2.0625 2.648438 -1.957031 2.859375 -1.75 C 3.078125 -1.550781 3.1875 -1.300781 3.1875 -1 C 3.1875 -0.6875 3.078125 -0.425781 2.859375 -0.21875 C 2.648438 -0.0078125 2.398438 0.09375 2.109375 0.09375 Z M 2.109375 0.09375 "/></g></g></g></svg>