<svg xmlns="http://www.w3.org/2000/svg" xmlns:xlink="http://www.w3.org/1999/xlink" width="300" zoomAndPan="magnify" viewBox="0 0 224.87999 93.749996" height="125" preserveAspectRatio="xMidYMid meet" version="1.0"><defs><g/><clipPath id="e3bf1892ab"><path d="M 9.589844 14 L 35 14 L 35 30 L 9.589844 30 Z M 9.589844 14 " clip-rule="nonzero"/></clipPath><clipPath id="ecc2498bce"><path d="M 110 14 L 136.003906 14 L 136.003906 30 L 110 30 Z M 110 14 " clip-rule="nonzero"/></clipPath><clipPath id="4aa732560d"><path d="M 23 29 L 38 29 L 38 41.679688 L 23 41.679688 Z M 23 29 " clip-rule="nonzero"/></clipPath><clipPath id="0b4ef3861e"><path d="M 51 29 L 66 29 L 66 41.679688 L 51 41.679688 Z M 51 29 " clip-rule="nonzero"/></clipPath><clipPath id="f1b1742b39"><path d="M 79 29 L 95 29 L 95 41.679688 L 79 41.679688 Z M 79 29 " clip-rule="nonzero"/></clipPath><clipPath id="56a40ad2a5"><path d="M 108 29 L 123 29 L 123 41.679688 L 108 41.679688 Z M 108 29 " clip-rule="nonzero"/></clipPath><clipPath id="698657ab63"><path d="M 9.589844 29 L 24 29 L 24 41.679688 L 9.589844 41.679688 Z M 9.589844 29 " clip-rule="nonzero"/></clipPath><clipPath id="8046c8962d"><path d="M 37 29 L 52 29 L 52 41.679688 L 37 41.679688 Z M 37 29 " clip-rule="nonzero"/></clipPath><clipPath id="84d82e4e78"><path d="M 65 29 L 80 29 L 80 41.679688 L 65 41.679688 Z M 65 29 " clip-rule="nonzero"/></clipPath><clipPath id="6529b9e10b"><path d="M 94 29 L 109 29 L 109 41.679688 L 94 41.679688 Z M 94 29 " clip-rule="nonzero"/></clipPath><clipPath id="2016a28980"><path d="M 122 29 L 136.003906 29 L 136.003906 41.679688 L 122 41.679688 Z M 122 29 " clip-rule="nonzero"/></clipPath></defs><path fill="#f4f4f4" d="M 37.742188 29.503906 L 23.671875 29.503906 L 34.023438 14.03125 L 44.886719 14.03125 L 37.742188 29.503906 " fill-opacity="1" fill-rule="nonzero"/><path fill="#f4f4f4" d="M 65.890625 29.503906 L 51.816406 29.503906 L 55.738281 14.03125 L 66.59375 14.03125 L 65.890625 29.503906 " fill-opacity="1" fill-rule="nonzero"/><path fill="#f4f4f4" d="M 94.03125 29.503906 L 79.964844 29.503906 L 77.457031 14.03125 L 88.308594 14.03125 L 94.03125 29.503906 " fill-opacity="1" fill-rule="nonzero"/><path fill="#f4f4f4" d="M 122.171875 29.503906 L 108.105469 29.503906 L 99.164062 14.03125 L 110.015625 14.03125 L 122.171875 29.503906 " fill-opacity="1" fill-rule="nonzero"/><g clip-path="url(#e3bf1892ab)"><path fill="#e74c3c" d="M 23.671875 29.503906 L 9.597656 29.503906 L 23.171875 14.03125 L 34.019531 14.03125 L 23.671875 29.503906 " fill-opacity="1" fill-rule="nonzero"/></g><path fill="#e74c3c" d="M 51.816406 29.503906 L 37.738281 29.503906 L 44.882812 14.03125 L 55.738281 14.03125 L 51.816406 29.503906 " fill-opacity="1" fill-rule="nonzero"/><path fill="#e74c3c" d="M 79.960938 29.503906 L 65.886719 29.503906 L 66.59375 14.03125 L 77.453125 14.03125 L 79.960938 29.503906 " fill-opacity="1" fill-rule="nonzero"/><path fill="#e74c3c" d="M 108.105469 29.503906 L 94.027344 29.503906 L 88.300781 14.03125 L 99.160156 14.03125 L 108.105469 29.503906 " fill-opacity="1" fill-rule="nonzero"/><g clip-path="url(#ecc2498bce)"><path fill="#e74c3c" d="M 136.25 29.503906 L 122.171875 29.503906 L 110.011719 14.03125 L 120.867188 14.03125 L 136.25 29.503906 " fill-opacity="1" fill-rule="nonzero"/></g><g clip-path="url(#4aa732560d)"><path fill="#bdbcbc" d="M 23.671875 29.503906 L 23.671875 34.882812 C 23.671875 36.773438 26.820312 41.554688 30.710938 41.554688 C 34.589844 41.554688 37.738281 36.773438 37.738281 34.882812 L 37.738281 29.503906 L 23.671875 29.503906 " fill-opacity="1" fill-rule="nonzero"/></g><g clip-path="url(#0b4ef3861e)"><path fill="#bdbcbc" d="M 65.882812 34.878906 L 65.882812 29.503906 L 51.8125 29.503906 L 51.8125 34.882812 C 51.8125 36.773438 54.964844 41.554688 58.851562 41.554688 C 62.738281 41.554688 65.882812 36.773438 65.882812 34.882812 L 65.882812 34.878906 " fill-opacity="1" fill-rule="nonzero"/></g><g clip-path="url(#f1b1742b39)"><path fill="#bdbcbc" d="M 94.023438 34.871094 L 94.023438 29.503906 L 79.957031 29.503906 L 79.957031 34.882812 L 79.96875 34.882812 C 79.96875 36.773438 83.113281 41.554688 86.992188 41.554688 C 90.878906 41.554688 94.03125 36.773438 94.03125 34.882812 L 94.023438 34.871094 " fill-opacity="1" fill-rule="nonzero"/></g><g clip-path="url(#56a40ad2a5)"><path fill="#bdbcbc" d="M 122.171875 34.867188 L 122.171875 29.503906 L 108.101562 29.503906 L 108.101562 34.882812 C 108.101562 36.773438 111.25 41.554688 115.136719 41.554688 C 119.027344 41.554688 122.179688 36.773438 122.179688 34.882812 L 122.171875 34.867188 " fill-opacity="1" fill-rule="nonzero"/></g><g clip-path="url(#698657ab63)"><path fill="#ab3c31" d="M 9.597656 29.503906 L 9.597656 34.882812 C 9.597656 36.773438 12.75 41.554688 16.636719 41.554688 C 20.519531 41.554688 23.671875 36.773438 23.671875 34.882812 L 23.671875 29.503906 L 9.597656 29.503906 " fill-opacity="1" fill-rule="nonzero"/></g><g clip-path="url(#8046c8962d)"><path fill="#ab3c31" d="M 37.738281 34.882812 C 37.738281 36.773438 40.894531 41.554688 44.78125 41.554688 C 48.671875 41.554688 51.816406 36.773438 51.816406 34.882812 L 51.816406 29.503906 L 37.738281 29.503906 L 37.738281 34.882812 " fill-opacity="1" fill-rule="nonzero"/></g><g clip-path="url(#84d82e4e78)"><path fill="#ab3c31" d="M 79.960938 29.503906 L 65.886719 29.503906 L 65.886719 34.882812 L 65.894531 34.882812 C 65.894531 36.773438 69.039062 41.554688 72.921875 41.554688 C 76.804688 41.554688 79.96875 36.773438 79.96875 34.882812 L 79.960938 34.871094 L 79.960938 29.503906 " fill-opacity="1" fill-rule="nonzero"/></g><g clip-path="url(#6529b9e10b)"><path fill="#ab3c31" d="M 108.105469 29.503906 L 94.027344 29.503906 L 94.027344 34.882812 L 94.035156 34.882812 C 94.035156 36.773438 97.183594 41.554688 101.066406 41.554688 C 104.957031 41.554688 108.105469 36.773438 108.105469 34.882812 L 108.105469 29.503906 " fill-opacity="1" fill-rule="nonzero"/></g><g clip-path="url(#2016a28980)"><path fill="#ab3c31" d="M 136.25 34.867188 L 136.25 29.503906 L 122.171875 29.503906 L 122.171875 34.882812 L 122.179688 34.882812 C 122.179688 36.773438 125.324219 41.554688 129.21875 41.554688 C 133.101562 41.554688 136.25 36.773438 136.25 34.882812 L 136.25 34.867188 " fill-opacity="1" fill-rule="nonzero"/></g><g fill="#ec6548" fill-opacity="1"><g transform="translate(8.704795, 70.40274)"><g><path d="M 18.203125 0 L 18.171875 -10.625 L 12.96875 -1.875 L 11.125 -1.875 L 5.9375 -10.390625 L 5.9375 0 L 2.09375 0 L 2.09375 -17.703125 L 5.484375 -17.703125 L 12.109375 -6.703125 L 18.625 -17.703125 L 22 -17.703125 L 22.046875 0 Z M 18.203125 0 "/></g></g></g><g fill="#f4f4f4" fill-opacity="1"><g transform="translate(32.839652, 70.40274)"><g><path d="M 1.8125 -13.59375 L 5.765625 -13.59375 L 5.765625 0 L 1.8125 0 Z M 3.796875 -15.5 C 3.066406 -15.5 2.472656 -15.707031 2.015625 -16.125 C 1.566406 -16.550781 1.34375 -17.078125 1.34375 -17.703125 C 1.34375 -18.316406 1.566406 -18.832031 2.015625 -19.25 C 2.472656 -19.675781 3.066406 -19.890625 3.796875 -19.890625 C 4.515625 -19.890625 5.101562 -19.6875 5.5625 -19.28125 C 6.019531 -18.882812 6.25 -18.378906 6.25 -17.765625 C 6.25 -17.109375 6.019531 -16.566406 5.5625 -16.140625 C 5.101562 -15.710938 4.515625 -15.5 3.796875 -15.5 Z M 3.796875 -15.5 "/></g></g></g><g fill="#ec6548" fill-opacity="1"><g transform="translate(40.448268, 70.40274)"><g><path d="M 5.765625 -14.359375 L 0.09375 -14.359375 L 0.09375 -17.703125 L 15.515625 -17.703125 L 15.515625 -14.359375 L 9.859375 -14.359375 L 9.859375 0 L 5.765625 0 Z M 5.765625 -14.359375 "/></g></g></g><g fill="#f4f4f4" fill-opacity="1"><g transform="translate(56.074566, 70.40274)"><g><path d="M 1.8125 -13.59375 L 5.765625 -13.59375 L 5.765625 0 L 1.8125 0 Z M 3.796875 -15.5 C 3.066406 -15.5 2.472656 -15.707031 2.015625 -16.125 C 1.566406 -16.550781 1.34375 -17.078125 1.34375 -17.703125 C 1.34375 -18.316406 1.566406 -18.832031 2.015625 -19.25 C 2.472656 -19.675781 3.066406 -19.890625 3.796875 -19.890625 C 4.515625 -19.890625 5.101562 -19.6875 5.5625 -19.28125 C 6.019531 -18.882812 6.25 -18.378906 6.25 -17.765625 C 6.25 -17.109375 6.019531 -16.566406 5.5625 -16.140625 C 5.101562 -15.710938 4.515625 -15.5 3.796875 -15.5 Z M 3.796875 -15.5 "/></g></g></g><g fill="#f4f4f4" fill-opacity="1"><g transform="translate(63.680408, 70.40274)"><g><path d="M 15.140625 -6.75 C 15.140625 -6.695312 15.113281 -6.34375 15.0625 -5.6875 L 4.78125 -5.6875 C 4.96875 -4.84375 5.40625 -4.175781 6.09375 -3.6875 C 6.78125 -3.195312 7.640625 -2.953125 8.671875 -2.953125 C 9.378906 -2.953125 10.003906 -3.054688 10.546875 -3.265625 C 11.097656 -3.484375 11.609375 -3.816406 12.078125 -4.265625 L 14.1875 -2 C 12.90625 -0.53125 11.035156 0.203125 8.578125 0.203125 C 7.035156 0.203125 5.675781 -0.09375 4.5 -0.6875 C 3.320312 -1.289062 2.410156 -2.125 1.765625 -3.1875 C 1.128906 -4.25 0.8125 -5.453125 0.8125 -6.796875 C 0.8125 -8.128906 1.125 -9.332031 1.75 -10.40625 C 2.382812 -11.476562 3.253906 -12.3125 4.359375 -12.90625 C 5.460938 -13.5 6.695312 -13.796875 8.0625 -13.796875 C 9.394531 -13.796875 10.597656 -13.507812 11.671875 -12.9375 C 12.753906 -12.363281 13.601562 -11.539062 14.21875 -10.46875 C 14.832031 -9.40625 15.140625 -8.164062 15.140625 -6.75 Z M 8.09375 -10.828125 C 7.195312 -10.828125 6.445312 -10.570312 5.84375 -10.0625 C 5.238281 -9.550781 4.867188 -8.859375 4.734375 -7.984375 L 11.421875 -7.984375 C 11.285156 -8.847656 10.914062 -9.535156 10.3125 -10.046875 C 9.707031 -10.566406 8.96875 -10.828125 8.09375 -10.828125 Z M 8.09375 -10.828125 "/></g></g></g><g fill="#f4f4f4" fill-opacity="1"><g transform="translate(79.624884, 70.40274)"><g><path d="M 10.09375 -13.796875 C 11.769531 -13.796875 13.125 -13.289062 14.15625 -12.28125 C 15.195312 -11.269531 15.71875 -9.769531 15.71875 -7.78125 L 15.71875 0 L 11.78125 0 L 11.78125 -7.1875 C 11.78125 -8.257812 11.539062 -9.0625 11.0625 -9.59375 C 10.59375 -10.125 9.914062 -10.390625 9.03125 -10.390625 C 8.03125 -10.390625 7.234375 -10.082031 6.640625 -9.46875 C 6.054688 -8.851562 5.765625 -7.9375 5.765625 -6.71875 L 5.765625 0 L 1.8125 0 L 1.8125 -13.59375 L 5.59375 -13.59375 L 5.59375 -12.015625 C 6.113281 -12.585938 6.757812 -13.023438 7.53125 -13.328125 C 8.3125 -13.640625 9.164062 -13.796875 10.09375 -13.796875 Z M 10.09375 -13.796875 "/></g></g></g><g fill="#f4f4f4" fill-opacity="1"><g transform="translate(97.085469, 70.40274)"><g><path d="M 15.671875 -18.765625 L 15.671875 0 L 11.90625 0 L 11.90625 -1.5625 C 10.925781 -0.382812 9.507812 0.203125 7.65625 0.203125 C 6.375 0.203125 5.210938 -0.0820312 4.171875 -0.65625 C 3.140625 -1.226562 2.328125 -2.046875 1.734375 -3.109375 C 1.148438 -4.171875 0.859375 -5.398438 0.859375 -6.796875 C 0.859375 -8.203125 1.148438 -9.429688 1.734375 -10.484375 C 2.328125 -11.546875 3.140625 -12.363281 4.171875 -12.9375 C 5.210938 -13.507812 6.375 -13.796875 7.65625 -13.796875 C 9.394531 -13.796875 10.753906 -13.25 11.734375 -12.15625 L 11.734375 -18.765625 Z M 8.34375 -3.03125 C 9.332031 -3.03125 10.15625 -3.367188 10.8125 -4.046875 C 11.476562 -4.734375 11.8125 -5.648438 11.8125 -6.796875 C 11.8125 -7.941406 11.476562 -8.851562 10.8125 -9.53125 C 10.15625 -10.21875 9.332031 -10.5625 8.34375 -10.5625 C 7.332031 -10.5625 6.5 -10.21875 5.84375 -9.53125 C 5.1875 -8.851562 4.859375 -7.941406 4.859375 -6.796875 C 4.859375 -5.648438 5.1875 -4.734375 5.84375 -4.046875 C 6.5 -3.367188 7.332031 -3.03125 8.34375 -3.03125 Z M 8.34375 -3.03125 "/></g></g></g><g fill="#f4f4f4" fill-opacity="1"><g transform="translate(114.571325, 70.40274)"><g><path d="M 1.8125 -13.59375 L 5.765625 -13.59375 L 5.765625 0 L 1.8125 0 Z M 3.796875 -15.5 C 3.066406 -15.5 2.472656 -15.707031 2.015625 -16.125 C 1.566406 -16.550781 1.34375 -17.078125 1.34375 -17.703125 C 1.34375 -18.316406 1.566406 -18.832031 2.015625 -19.25 C 2.472656 -19.675781 3.066406 -19.890625 3.796875 -19.890625 C 4.515625 -19.890625 5.101562 -19.6875 5.5625 -19.28125 C 6.019531 -18.882812 6.25 -18.378906 6.25 -17.765625 C 6.25 -17.109375 6.019531 -16.566406 5.5625 -16.140625 C 5.101562 -15.710938 4.515625 -15.5 3.796875 -15.5 Z M 3.796875 -15.5 "/></g></g></g><g fill="#f4f4f4" fill-opacity="1"><g transform="translate(122.177167, 70.40274)"><g><path d="M 10.59375 -0.65625 C 10.207031 -0.375 9.726562 -0.160156 9.15625 -0.015625 C 8.59375 0.128906 8 0.203125 7.375 0.203125 C 5.757812 0.203125 4.507812 -0.207031 3.625 -1.03125 C 2.738281 -1.863281 2.296875 -3.078125 2.296875 -4.671875 L 2.296875 -10.265625 L 0.203125 -10.265625 L 0.203125 -13.296875 L 2.296875 -13.296875 L 2.296875 -16.609375 L 6.25 -16.609375 L 6.25 -13.296875 L 9.625 -13.296875 L 9.625 -10.265625 L 6.25 -10.265625 L 6.25 -4.734375 C 6.25 -4.160156 6.394531 -3.71875 6.6875 -3.40625 C 6.976562 -3.09375 7.394531 -2.9375 7.9375 -2.9375 C 8.5625 -2.9375 9.09375 -3.101562 9.53125 -3.4375 Z M 10.59375 -0.65625 "/></g></g></g><g fill="#f4f4f4" fill-opacity="1"><g transform="translate(133.168996, 70.40274)"><g><path d="M 7.3125 -13.796875 C 9.414062 -13.796875 11.03125 -13.296875 12.15625 -12.296875 C 13.289062 -11.296875 13.859375 -9.785156 13.859375 -7.765625 L 13.859375 0 L 10.15625 0 L 10.15625 -1.6875 C 9.414062 -0.425781 8.035156 0.203125 6.015625 0.203125 C 4.972656 0.203125 4.066406 0.0234375 3.296875 -0.328125 C 2.535156 -0.679688 1.953125 -1.171875 1.546875 -1.796875 C 1.140625 -2.421875 0.9375 -3.128906 0.9375 -3.921875 C 0.9375 -5.179688 1.410156 -6.171875 2.359375 -6.890625 C 3.316406 -7.617188 4.789062 -7.984375 6.78125 -7.984375 L 9.90625 -7.984375 C 9.90625 -8.847656 9.644531 -9.507812 9.125 -9.96875 C 8.601562 -10.4375 7.820312 -10.671875 6.78125 -10.671875 C 6.050781 -10.671875 5.335938 -10.554688 4.640625 -10.328125 C 3.941406 -10.097656 3.347656 -9.789062 2.859375 -9.40625 L 1.4375 -12.15625 C 2.175781 -12.675781 3.0625 -13.078125 4.09375 -13.359375 C 5.132812 -13.648438 6.207031 -13.796875 7.3125 -13.796875 Z M 7 -2.453125 C 7.675781 -2.453125 8.273438 -2.609375 8.796875 -2.921875 C 9.316406 -3.234375 9.6875 -3.691406 9.90625 -4.296875 L 9.90625 -5.6875 L 7.203125 -5.6875 C 5.585938 -5.6875 4.78125 -5.15625 4.78125 -4.09375 C 4.78125 -3.59375 4.976562 -3.191406 5.375 -2.890625 C 5.769531 -2.597656 6.3125 -2.453125 7 -2.453125 Z M 7 -2.453125 "/></g></g></g><g fill="#ec6548" fill-opacity="1"><g transform="translate(148.768783, 70.40274)"><g><path d="M 3.3125 0.203125 C 2.625 0.203125 2.039062 -0.03125 1.5625 -0.5 C 1.09375 -0.976562 0.859375 -1.570312 0.859375 -2.28125 C 0.859375 -3 1.09375 -3.582031 1.5625 -4.03125 C 2.039062 -4.476562 2.625 -4.703125 3.3125 -4.703125 C 4 -4.703125 4.578125 -4.476562 5.046875 -4.03125 C 5.523438 -3.582031 5.765625 -3 5.765625 -2.28125 C 5.765625 -1.570312 5.523438 -0.976562 5.046875 -0.5 C 4.578125 -0.03125 4 0.203125 3.3125 0.203125 Z M 3.3125 0.203125 "/></g></g></g><g fill="#f4f4f4" fill-opacity="1"><g transform="translate(155.395638, 70.40274)"><g><path d="M 8.390625 0.203125 C 6.941406 0.203125 5.640625 -0.09375 4.484375 -0.6875 C 3.328125 -1.289062 2.425781 -2.125 1.78125 -3.1875 C 1.132812 -4.25 0.8125 -5.453125 0.8125 -6.796875 C 0.8125 -8.148438 1.132812 -9.359375 1.78125 -10.421875 C 2.425781 -11.484375 3.328125 -12.3125 4.484375 -12.90625 C 5.640625 -13.5 6.941406 -13.796875 8.390625 -13.796875 C 9.828125 -13.796875 11.078125 -13.5 12.140625 -12.90625 C 13.210938 -12.3125 13.992188 -11.457031 14.484375 -10.34375 L 11.421875 -8.703125 C 10.710938 -9.941406 9.695312 -10.5625 8.375 -10.5625 C 7.34375 -10.5625 6.488281 -10.222656 5.8125 -9.546875 C 5.132812 -8.878906 4.796875 -7.960938 4.796875 -6.796875 C 4.796875 -5.640625 5.132812 -4.722656 5.8125 -4.046875 C 6.488281 -3.367188 7.34375 -3.03125 8.375 -3.03125 C 9.71875 -3.03125 10.734375 -3.65625 11.421875 -4.90625 L 14.484375 -3.234375 C 13.992188 -2.160156 13.210938 -1.316406 12.140625 -0.703125 C 11.078125 -0.0976562 9.828125 0.203125 8.390625 0.203125 Z M 8.390625 0.203125 "/></g></g></g><g fill="#f4f4f4" fill-opacity="1"><g transform="translate(170.329367, 70.40274)"><g><path d="M 8.296875 0.203125 C 6.859375 0.203125 5.570312 -0.09375 4.4375 -0.6875 C 3.300781 -1.289062 2.410156 -2.125 1.765625 -3.1875 C 1.128906 -4.25 0.8125 -5.453125 0.8125 -6.796875 C 0.8125 -8.148438 1.128906 -9.359375 1.765625 -10.421875 C 2.410156 -11.484375 3.300781 -12.3125 4.4375 -12.90625 C 5.570312 -13.5 6.859375 -13.796875 8.296875 -13.796875 C 9.722656 -13.796875 11 -13.5 12.125 -12.90625 C 13.257812 -12.3125 14.144531 -11.484375 14.78125 -10.421875 C 15.425781 -9.359375 15.75 -8.148438 15.75 -6.796875 C 15.75 -5.453125 15.425781 -4.25 14.78125 -3.1875 C 14.144531 -2.125 13.257812 -1.289062 12.125 -0.6875 C 11 -0.09375 9.722656 0.203125 8.296875 0.203125 Z M 8.296875 -3.03125 C 9.304688 -3.03125 10.132812 -3.367188 10.78125 -4.046875 C 11.425781 -4.734375 11.75 -5.648438 11.75 -6.796875 C 11.75 -7.941406 11.425781 -8.851562 10.78125 -9.53125 C 10.132812 -10.21875 9.304688 -10.5625 8.296875 -10.5625 C 7.285156 -10.5625 6.445312 -10.21875 5.78125 -9.53125 C 5.125 -8.851562 4.796875 -7.941406 4.796875 -6.796875 C 4.796875 -5.648438 5.125 -4.734375 5.78125 -4.046875 C 6.445312 -3.367188 7.285156 -3.03125 8.296875 -3.03125 Z M 8.296875 -3.03125 "/></g></g></g><g fill="#f4f4f4" fill-opacity="1"><g transform="translate(186.880284, 70.40274)"><g><path d="M 19.234375 -13.796875 C 20.941406 -13.796875 22.296875 -13.296875 23.296875 -12.296875 C 24.296875 -11.296875 24.796875 -9.789062 24.796875 -7.78125 L 24.796875 0 L 20.859375 0 L 20.859375 -7.1875 C 20.859375 -8.257812 20.632812 -9.0625 20.1875 -9.59375 C 19.738281 -10.125 19.101562 -10.390625 18.28125 -10.390625 C 17.351562 -10.390625 16.617188 -10.085938 16.078125 -9.484375 C 15.535156 -8.890625 15.265625 -8.003906 15.265625 -6.828125 L 15.265625 0 L 11.328125 0 L 11.328125 -7.1875 C 11.328125 -9.320312 10.46875 -10.390625 8.75 -10.390625 C 7.832031 -10.390625 7.101562 -10.085938 6.5625 -9.484375 C 6.03125 -8.890625 5.765625 -8.003906 5.765625 -6.828125 L 5.765625 0 L 1.8125 0 L 1.8125 -13.59375 L 5.59375 -13.59375 L 5.59375 -12.03125 C 6.09375 -12.601562 6.707031 -13.039062 7.4375 -13.34375 C 8.175781 -13.644531 8.984375 -13.796875 9.859375 -13.796875 C 10.816406 -13.796875 11.679688 -13.609375 12.453125 -13.234375 C 13.234375 -12.859375 13.859375 -12.304688 14.328125 -11.578125 C 14.890625 -12.285156 15.59375 -12.832031 16.4375 -13.21875 C 17.289062 -13.601562 18.222656 -13.796875 19.234375 -13.796875 Z M 19.234375 -13.796875 "/></g></g></g></svg>